HIERARCHY
ROOT Hips
{
    OFFSET 0.000000 0.000000 0.000000
    CHANNELS 6 Xposition Yposition Zposition Zrotation Xrotation Yrotation
    JOINT Spine
    {
        OFFSET -0.000000 7.810951 0.000000
        CHANNELS 3 Zrotation Xrotation Yrotation
        JOINT Spine1
        {
            OFFSET -0.000000 18.868288 0.000000
            CHANNELS 3 Zrotation Xrotation Yrotation
            JOINT Neck
            {
                OFFSET -0.000000 18.790800 1.708255
                CHANNELS 3 Zrotation Xrotation Yrotation
                JOINT Head
                {
                    OFFSET -0.000000 13.335769 -1.905110
                    CHANNELS 3 Zrotation Xrotation Yrotation
                    End Site
                    {
                        OFFSET -0.000000 23.813873 0.000000
                    }
                }
            }
            JOINT LeftShoulder
            {
                OFFSET 3.868973 15.461964 -0.252686
                CHANNELS 3 Zrotation Xrotation Yrotation
                JOINT LeftArm
                {
                    OFFSET 15.258958 0.000000 0.000000
                    CHANNELS 3 Zrotation Xrotation Yrotation
                    JOINT LeftForeArm
                    {
                        OFFSET 27.600050 0.000000 0.000000
                        CHANNELS 3 Zrotation Xrotation Yrotation
                        JOINT LeftHand
                        {
                            OFFSET 23.737446 0.000000 0.000000
                            CHANNELS 3 Zrotation Xrotation Yrotation
                            End Site
                            {
                                OFFSET 14.288324 0.000000 0.000000
                            }
                        }
                    }
                }
            }
            JOINT RightShoulder
            {
                OFFSET -3.750262 15.461964 -0.252686
                CHANNELS 3 Zrotation Xrotation Yrotation
                JOINT RightArm
                {
                    OFFSET -15.258958 0.000000 0.000000
                    CHANNELS 3 Zrotation Xrotation Yrotation
                    JOINT RightForeArm
                    {
                        OFFSET -27.600050 0.000000 0.000000
                        CHANNELS 3 Zrotation Xrotation Yrotation
                        JOINT RightHand
                        {
                            OFFSET -23.737446 0.000000 0.000000
                            CHANNELS 3 Zrotation Xrotation Yrotation
                            End Site
                            {
                                OFFSET -14.288324 0.000000 0.000000
                            }
                        }
                    }
                }
            }
        }
    }
    JOINT LeftUpLeg
    {
        OFFSET 9.525549 0.000000 0.000000
        CHANNELS 3 Zrotation Xrotation Yrotation
        JOINT LeftLeg
        {
            OFFSET -0.000000 -45.198063 0.000000
            CHANNELS 3 Zrotation Xrotation Yrotation
            JOINT LeftFoot
            {
                OFFSET -0.000000 -37.850700 0.000000
                CHANNELS 3 Zrotation Xrotation Yrotation
                JOINT LeftToeBase
                {
                    OFFSET -0.000000 -6.191607 14.288324
                    CHANNELS 3 Zrotation Xrotation Yrotation
                    End Site
                    {
                        OFFSET -0.000000 0.000000 3.810220
                    }
                }
            }
        }
    }
    JOINT RightUpLeg
    {
        OFFSET -9.525549 0.000000 0.000000
        CHANNELS 3 Zrotation Xrotation Yrotation
        JOINT RightLeg
        {
            OFFSET -0.000000 -45.198063 0.000000
            CHANNELS 3 Zrotation Xrotation Yrotation
            JOINT RightFoot
            {
                OFFSET -0.000000 -37.850700 0.000000
                CHANNELS 3 Zrotation Xrotation Yrotation
                JOINT RightToeBase
                {
                    OFFSET -0.000000 -6.191607 14.288324
                    CHANNELS 3 Zrotation Xrotation Yrotation
                    End Site
                    {
                        OFFSET -0.000000 0.000000 3.810220
                    }
                }
            }
        }
    }
}
MOTION
Frames:    9
Frame Time:    0.008333
156.511200    85.368469    -88.339622    -4.375667    -21.574545    165.772141    -0.194414    -4.120136    -0.298554    -2.107031    11.141709    -0.086182    6.169515    17.017738    19.981445    -11.684826    -18.275396    17.426233    9.248199    2.440612    -15.033216    -46.816296    27.652328    -55.660435    1.619385    -10.593743    -20.627068    -1.118901    -10.324107    2.059028    -5.406526    5.384696    3.661385    52.390785    39.111431    27.888954    -3.330840    -10.383071    40.458069    -4.168219    -8.981184    -5.310732    8.638450    -24.373762    0.934899    -1.114672    33.118973    -13.449619    7.660412    -31.077799    23.847979    0.000000    0.000000    0.000000    -1.685199    -44.469398    3.984851    6.642320    34.376064    8.951584    -9.919802    -19.398645    -25.882469    0.000000    0.000000    0.000000    
156.564438    85.371399    -88.403679    -4.344497    -21.599133    165.882294    0.134042    -4.045259    -0.304110    -2.772772    10.983361    -0.042261    6.595140    17.165070    19.951437    -11.760571    -18.292385    17.383366    9.572519    2.445512    -15.133112    -46.567978    27.750509    -55.945793    1.594540    -10.598056    -21.391314    -0.776744    -10.316278    2.098009    -4.917927    5.268413    3.788882    52.668087    39.052498    27.447052    -3.353807    -10.303325    40.431606    -4.146706    -8.897915    -5.216829    8.765132    -24.221552    0.768922    -1.418241    32.837002    -13.453161    7.846229    -31.064518    24.073118    0.000000    0.000000    0.000000    -1.686503    -44.438988    3.949691    6.651855    34.419846    8.927741    -10.275689    -19.462961    -25.910910    0.000000    0.000000    0.000000    
156.601257    85.368050    -88.426933    -4.347760    -21.737406    165.933380    0.200884    -4.088815    -0.288405    -3.024540    10.839253    -0.008638    7.053490    17.537737    19.906416    -12.175003    -18.606424    17.211918    9.849152    2.399695    -15.290027    -46.127827    28.060495    -56.311768    1.679479    -10.948948    -22.239231    -0.785611    -10.639309    2.110564    -4.646730    5.345648    3.856186    52.620705    38.995411    27.317982    -3.309341    -10.287582    40.486763    -4.138276    -8.898189    -5.178924    8.822818    -24.304741    0.778913    -1.416575    32.759239    -13.546172    7.918703    -31.093910    24.143156    0.000000    0.000000    0.000000    -1.669947    -44.636280    4.021759    6.752104    34.587120    8.910363    -10.043123    -19.408192    -26.121168    0.000000    0.000000    0.000000    
156.663269    85.387108    -88.554588    -4.322158    -21.595720    166.015793    0.191391    -4.010044    -0.322838    -3.053361    10.916398    -0.037740    7.079444    17.679108    19.800837    -12.339048    -18.755991    17.047171    9.838387    2.294474    -15.325683    -46.002804    28.124413    -56.498898    1.629072    -10.938717    -22.935703    -0.912378    -10.631440    2.165861    -4.640196    5.353581    3.888525    52.729713    38.935158    27.264423    -3.266348    -10.222417    40.477482    -4.206110    -8.847198    -5.137696    8.815743    -23.988777    0.618075    -1.525590    32.521206    -13.355509    7.693741    -31.041159    23.978806    0.000000    0.000000    0.000000    -1.707640    -44.369286    4.010840    6.783566    34.564526    9.011374    -10.216242    -19.502085    -26.308664    0.000000    0.000000    0.000000    
156.716492    85.395836    -88.618698    -4.308136    -21.647583    166.065460    0.032699    -3.987528    -0.212834    -2.884850    10.808035    0.058956    7.412915    17.721457    19.626503    -12.579287    -18.628401    16.814571    9.954221    2.315121    -15.677692    -46.099216    28.125746    -56.747822    1.754506    -11.011938    -23.568493    -0.836163    -10.667935    2.098804    -4.484374    5.429183    3.633652    52.562263    39.011150    27.180349    -3.180174    -10.248561    40.646420    -4.243699    -8.899047    -5.106977    8.870872    -23.946548    0.599385    -1.638703    32.269863    -12.077382    6.903089    -31.114363    22.619514    0.000000    0.000000    0.000000    -1.665114    -44.356346    4.021280    6.772489    34.584450    9.072423    -10.613309    -19.543598    -26.365253    0.000000    0.000000    0.000000    
156.770096    85.403725    -88.655762    -4.281967    -21.757328    166.118271    -0.017682    -4.092643    -0.219577    -2.591158    10.956569    0.029658    6.934895    17.268507    19.598803    -12.006800    -18.299303    16.951181    9.704387    2.185789    -15.649710    -45.827686    28.175316    -56.982231    1.666612    -11.047023    -24.365517    -0.831003    -10.709868    2.207150    -4.769240    5.396806    3.551889    52.746189    38.896378    27.272715    -3.146749    -10.149790    40.605793    -4.209746    -8.815108    -5.101204    8.973413    -23.998055    0.637427    -1.667931    32.206276    -12.048615    6.710526    -31.105061    22.481178    0.000000    0.000000    0.000000    -1.566025    -44.400402    3.996089    6.679865    34.558521    9.089728    -10.698951    -19.548759    -26.362459    0.000000    0.000000    0.000000    
156.823914    85.411346    -88.695839    -4.257628    -21.881588    166.156525    0.112249    -4.158087    -0.299349    -2.633237    10.892071    -0.052570    6.602370    17.408346    19.557312    -11.740236    -18.514824    16.969650    9.509630    2.303711    -15.447219    -45.296989    28.229542    -57.313099    1.487187    -11.121100    -25.089228    -0.644457    -10.808748    2.176375    -4.910024    5.446182    3.801798    53.124207    38.641884    27.198214    -3.134778    -9.995389    40.439209    -4.188921    -8.673480    -5.018454    9.091033    -24.055775    0.721489    -1.703423    32.132839    -12.010278    6.398444    -31.108147    22.310528    0.000000    0.000000    0.000000    -1.452760    -44.445717    3.985305    6.583081    34.502419    9.088017    -10.730177    -19.584984    -26.325766    0.000000    0.000000    0.000000    
156.871490    85.421028    -88.748611    -4.205990    -21.934355    166.231995    0.148171    -4.156862    -0.322980    -2.600987    10.880305    -0.080752    6.550758    17.470877    19.411634    -11.677801    -18.652340    16.825111    9.482519    2.295864    -15.437091    -45.153660    28.297215    -57.477581    1.455627    -11.199027    -25.792774    -0.763210    -10.886523    2.155710    -4.931122    5.486531    3.812990    53.215427    38.548309    27.200392    -3.091639    -9.923045    40.399250    -4.144606    -8.621720    -4.966563    9.165493    -24.025768    0.685162    -1.714690    32.028526    -11.889442    6.163018    -31.122097    22.315540    0.000000    0.000000    0.000000    -1.388805    -44.493198    4.011067    6.615881    34.648418    9.064623    -10.774297    -19.560692    -26.399685    0.000000    0.000000    0.000000    
156.918625    85.430847    -88.802650    -4.178545    -21.997150    166.276398    0.165212    -4.163964    -0.332770    -2.595371    10.858040    -0.092237    6.646695    17.602579    19.216568    -11.810622    -18.843628    16.571812    9.490105    2.279690    -15.411297    -44.988373    28.384943    -57.719292    1.386111    -11.188175    -26.309963    -0.617032    -10.882158    2.161951    -4.923448    5.552249    3.802014    53.268654    38.462364    27.240335    -3.040164    -9.825562    40.367565    -4.124760    -8.546747    -4.902459    9.245857    -23.999945    0.649649    -1.787593    31.916180    -11.731781    5.992557    -31.140808    22.147907    0.000000    0.000000    0.000000    -1.312852    -44.493168    4.059510    6.591495    34.634277    8.959208    -10.769966    -19.567194    -26.347923    0.000000    0.000000    0.000000    
